<svg width="12" height="10" viewBox="0 0 12 10" fill="none" xmlns="http://www.w3.org/2000/svg">
<path d="M10.6667 4.33332H2.76008L5.18008 1.42666C5.29324 1.29051 5.34768 1.11499 5.33143 0.938708C5.31517 0.762424 5.22956 0.599816 5.09341 0.486657C4.95727 0.373498 4.78175 0.319057 4.60546 0.33531C4.42918 0.351563 4.26657 0.437179 4.15341 0.573324L0.820081 4.57332C0.797655 4.60514 0.777601 4.63856 0.760081 4.67332C0.760081 4.70666 0.760081 4.72666 0.713415 4.75999C0.683197 4.83643 0.667375 4.9178 0.666748 4.99999C0.667375 5.08218 0.683197 5.16355 0.713415 5.23999C0.713415 5.27332 0.713415 5.29332 0.760081 5.32666C0.777601 5.36142 0.797655 5.39484 0.820081 5.42666L4.15341 9.42666C4.2161 9.50191 4.29459 9.56243 4.38331 9.60391C4.47203 9.6454 4.56881 9.66682 4.66675 9.66666C4.82252 9.66696 4.97347 9.61271 5.09341 9.51332C5.16092 9.45736 5.21672 9.38862 5.25762 9.31106C5.29852 9.23349 5.32372 9.14862 5.33177 9.06131C5.33982 8.97399 5.33057 8.88594 5.30454 8.8022C5.27851 8.71847 5.23622 8.64069 5.18008 8.57333L2.76008 5.66666H10.6667C10.8436 5.66666 11.0131 5.59642 11.1382 5.4714C11.2632 5.34637 11.3334 5.1768 11.3334 4.99999C11.3334 4.82318 11.2632 4.65361 11.1382 4.52859C11.0131 4.40356 10.8436 4.33332 10.6667 4.33332Z" fill="#B80000"/>
</svg>
