<svg width="20" height="20" viewBox="0 0 20 20" fill="none" xmlns="http://www.w3.org/2000/svg">
<path d="M2 2.12224e-06L4 5H7L5 2.12224e-06H7L9 5H12L10 2.12224e-06H12L14 5H17L15 2.12224e-06H18C18.55 2.12224e-06 19.021 0.245002 19.413 0.735002C19.805 1.225 20.0007 1.81334 20 2.5V17.5C20 18.1875 19.804 18.7762 19.412 19.2662C19.02 19.7562 18.5493 20.0008 18 20H2C1.45 20 0.979002 19.755 0.587002 19.265C0.195002 18.775 -0.000664969 18.1867 1.69779e-06 17.5V2.5C1.69779e-06 1.8125 0.196002 1.22375 0.588002 0.733752C0.980002 0.243752 1.45067 -0.000831211 2 2.12224e-06ZM2 7.5V17.5H18V7.5H2Z" fill="white"/>
</svg>
