<svg width="20" height="20" viewBox="0 0 20 20" fill="none" xmlns="http://www.w3.org/2000/svg">
<path d="M18.3333 5.17916H16.0317C16.5702 4.46619 16.7777 3.59555 16.6105 2.74962C16.4434 1.90369 15.9146 1.14809 15.1349 0.641099C14.3553 0.134108 13.3853 -0.0849417 12.4281 0.0298338C11.4709 0.144609 10.6008 0.584306 10 1.25682C9.39922 0.584306 8.52909 0.144609 7.5719 0.0298338C6.6147 -0.0849417 5.64469 0.134108 4.86505 0.641099C4.08541 1.14809 3.55663 1.90369 3.38948 2.74962C3.22232 3.59555 3.42976 4.46619 3.96833 5.17916H1.66667C1.22477 5.17955 0.801108 5.33582 0.488643 5.61368C0.176178 5.89154 0.000441231 6.26829 0 6.66124V9.62541C0.000441231 10.0184 0.176178 10.3951 0.488643 10.673C0.801108 10.9508 1.22477 11.1071 1.66667 11.1075V18.5179C1.66711 18.9109 1.84284 19.2876 2.15531 19.5655C2.46777 19.8433 2.89144 19.9996 3.33333 20H16.6667C17.1086 19.9996 17.5322 19.8433 17.8447 19.5655C18.1572 19.2876 18.3329 18.9109 18.3333 18.5179V11.1075C18.7752 11.1071 19.1989 10.9508 19.5114 10.673C19.8238 10.3951 19.9996 10.0184 20 9.62541V6.66124C19.9996 6.26829 19.8238 5.89154 19.5114 5.61368C19.1989 5.33582 18.7752 5.17955 18.3333 5.17916ZM10.8333 3.32655C10.8333 2.96014 10.9555 2.60196 11.1844 2.2973C11.4134 1.99264 11.7387 1.75519 12.1194 1.61497C12.5001 1.47475 12.919 1.43806 13.3231 1.50954C13.7272 1.58103 14.0984 1.75747 14.3898 2.01656C14.6812 2.27565 14.8796 2.60576 14.96 2.96513C15.0404 3.3245 14.9991 3.69699 14.8414 4.03551C14.6837 4.37403 14.4167 4.66337 14.0741 4.86694C13.7315 5.0705 13.3287 5.17916 12.9167 5.17916H10.8333V3.32655ZM7.08333 1.47395C7.63566 1.47453 8.16518 1.66991 8.55574 2.01721C8.9463 2.36451 9.166 2.83539 9.16667 3.32655V5.17916H7.08333C6.5308 5.17916 6.00089 4.98397 5.61019 4.63654C5.21949 4.28911 5 3.81789 5 3.32655C5 2.83521 5.21949 2.36399 5.61019 2.01656C6.00089 1.66913 6.5308 1.47395 7.08333 1.47395ZM1.66667 6.66124H9.16667V9.62541H1.66667V6.66124ZM3.33333 11.1075H9.16667V18.5179H3.33333V11.1075ZM16.6675 18.5179H10.8333V11.1075H16.6667L16.6675 18.5179ZM10.8333 9.62541V6.66124H18.3333L18.3342 9.62541H10.8333Z" fill="white"/>
</svg>
