<svg width="20" height="20" viewBox="0 0 20 20" fill="none" xmlns="http://www.w3.org/2000/svg">
<path d="M20 0H0V6.31579H1V17.8947C1 18.4531 1.21071 18.9886 1.58579 19.3834C1.96086 19.7782 2.46957 20 3 20H17C17.5304 20 18.0391 19.7782 18.4142 19.3834C18.7893 18.9886 19 18.4531 19 17.8947V6.31579H20V0ZM2 2.10526H18V4.21053H2V2.10526ZM17 17.8947H3V6.31579H17V17.8947ZM7 8.42105H13C13 8.9794 12.7893 9.51489 12.4142 9.9097C12.0391 10.3045 11.5304 10.5263 11 10.5263H9C8.46957 10.5263 7.96086 10.3045 7.58579 9.9097C7.21071 9.51489 7 8.9794 7 8.42105Z" fill="white"/>
</svg>
